<?xml version="1.0" encoding="iso-8859-1"?>
<!-- Uploaded to: SVG Repo, www.svgrepo.com, Generator: SVG Repo Mixer Tools -->
<svg height="800px" width="800px" version="1.1" id="Layer_1" xmlns="http://www.w3.org/2000/svg" xmlns:xlink="http://www.w3.org/1999/xlink" 
	 viewBox="0 0 512 512" xml:space="preserve">
<path style="fill:#E4D1F3;" d="M376.967,0h-33.758l45.011,472.285l33.758-5.296V45.011C421.978,20.153,401.826,0,376.967,0z"/>
<path style="fill:#FFC5BF;" d="M123.78,45.011C123.78,20.153,69.869,0,45.011,0L33.758,39.385l11.253,39.385h78.769V45.011z"/>
<path style="fill:#FFD8D4;" d="M0,45.011v33.758h45.011V0C20.153,0,0,20.153,0,45.011z"/>
<path style="fill:#F1E8F9;" d="M343.209,0H45.011c24.858,0,45.011,20.153,45.011,45.011v421.978
	c0,24.858,20.153,45.011,45.011,45.011l253.187-39.715V45.011C388.22,20.153,368.067,0,343.209,0z"/>
<path style="fill:#F89890;" d="M478.242,433.231L433.231,512h33.758C491.847,512,512,491.847,512,466.989v-33.758H478.242z"/>
<path style="fill:#FFC5BF;" d="M478.242,466.989v-33.758H180.044v33.758c0,24.858-20.153,45.011-45.011,45.011h298.198
	C458.089,512,478.242,491.847,478.242,466.989z"/>
<path style="fill:#9E52B6;" d="M256,42.198c-54.292,0-98.462,44.169-98.462,98.462s44.169,98.462,98.462,98.462
	c19.846,0,38.983-5.886,55.342-17.022c3.853-2.623,4.85-7.872,2.227-11.725c-2.624-3.853-7.872-4.85-11.725-2.227
	c-6.431,4.378-13.385,7.763-20.672,10.125c8.485-17.145,13.24-42.825,14.077-69.172h41.892
	c-1.377,13.399-6.021,26.192-13.654,37.403c-2.623,3.853-1.626,9.102,2.227,11.725c3.854,2.624,9.103,1.626,11.725-2.227
	c11.137-16.359,17.023-35.496,17.023-55.342C354.462,86.367,310.292,42.198,256,42.198z M337.147,132.22h-41.898
	c-0.837-26.334-5.588-52.002-14.065-69.147C311.305,72.874,333.794,99.743,337.147,132.22z M256,59.077
	c2.731,0,8.687,5.505,13.901,20.671c4.868,14.163,7.816,32.551,8.467,52.472h-44.734c0.65-19.922,3.599-38.31,8.467-52.472
	C247.313,64.582,253.269,59.077,256,59.077z M230.816,63.073c-8.477,17.145-13.228,42.812-14.065,69.147h-41.898
	C178.206,99.743,200.695,72.874,230.816,63.073z M174.853,149.099h41.898c0.837,26.334,5.588,52.002,14.065,69.147
	C200.695,208.445,178.206,181.575,174.853,149.099z M269.901,201.57c-5.213,15.166-11.169,20.671-13.901,20.671
	c-2.731,0-8.687-5.505-13.9-20.671c-4.868-14.163-7.816-32.551-8.467-52.472h44.734C277.717,169.021,274.768,187.409,269.901,201.57
	z"/>
<g>
	<path style="fill:#4D2564;" d="M371.341,391.033h-98.462c-4.661,0-8.44-3.779-8.44-8.44s3.779-8.44,8.44-8.44h98.462
		c4.661,0,8.44,3.779,8.44,8.44S376.002,391.033,371.341,391.033z"/>
	<path style="fill:#4D2564;" d="M239.121,391.033h-98.462c-4.661,0-8.44-3.779-8.44-8.44s3.779-8.44,8.44-8.44h98.462
		c4.661,0,8.44,3.779,8.44,8.44S243.782,391.033,239.121,391.033z"/>
	<path style="fill:#4D2564;" d="M371.341,340.396h-98.462c-4.661,0-8.44-3.779-8.44-8.44s3.779-8.44,8.44-8.44h98.462
		c4.661,0,8.44,3.779,8.44,8.44S376.002,340.396,371.341,340.396z"/>
	<path style="fill:#4D2564;" d="M239.121,340.396h-98.462c-4.661,0-8.44-3.779-8.44-8.44s3.779-8.44,8.44-8.44h98.462
		c4.661,0,8.44,3.779,8.44,8.44S243.782,340.396,239.121,340.396z"/>
	<path style="fill:#4D2564;" d="M371.341,289.758h-98.462c-4.661,0-8.44-3.779-8.44-8.44s3.779-8.44,8.44-8.44h98.462
		c4.661,0,8.44,3.779,8.44,8.44S376.002,289.758,371.341,289.758z"/>
	<path style="fill:#4D2564;" d="M239.121,289.758h-98.462c-4.661,0-8.44-3.779-8.44-8.44s3.779-8.44,8.44-8.44h98.462
		c4.661,0,8.44,3.779,8.44,8.44S243.782,289.758,239.121,289.758z"/>
</g>
</svg>